<?xml version="1.0" encoding="iso-8859-1"?>
<!-- Generator: Adobe Illustrator 19.0.0, SVG Export Plug-In . SVG Version: 6.00 Build 0)  -->
<svg version="1.1" id="Layer_1" xmlns="http://www.w3.org/2000/svg" xmlns:xlink="http://www.w3.org/1999/xlink" x="0px" y="0px"
	 viewBox="0 0 485 485" style="enable-background:new 0 0 485 485;" xml:space="preserve">
<g>
	<path d="M342.923,151.148v-50.726C342.923,45.049,297.873,0,242.5,0S142.077,45.049,142.077,100.423v50.726h-60v80.726
		c0,83.399,63.974,152.127,145.423,159.716V455h-90.444v30h210.889v-30H257.5v-63.411c81.449-7.589,145.423-76.317,145.423-159.716
		v-80.726H342.923z M172.077,100.423C172.077,61.591,203.669,30,242.5,30s70.423,31.591,70.423,70.423v131.451
		c0,38.831-31.592,70.423-70.423,70.423s-70.423-31.591-70.423-70.423V100.423z M372.923,231.874
		c0,71.915-58.508,130.423-130.423,130.423s-130.423-58.507-130.423-130.423v-50.726h30v50.726
		c0,55.373,45.05,100.423,100.423,100.423s100.423-45.049,100.423-100.423v-50.726h30V231.874z"/>
</g>
<g>
</g>
<g>
</g>
<g>
</g>
<g>
</g>
<g>
</g>
<g>
</g>
<g>
</g>
<g>
</g>
<g>
</g>
<g>
</g>
<g>
</g>
<g>
</g>
<g>
</g>
<g>
</g>
<g>
</g>
</svg>
