<svg width="1920" height="1254" viewBox="0 0 1920 1254" fill="none" xmlns="http://www.w3.org/2000/svg">
<g clip-path="url(#clip0_4_3725)">
<rect width="1920" height="1253.33" fill="white"/>
<g clip-path="url(#clip1_4_3725)">
<rect width="1920" height="1253.33" fill="#F7F8FB"/>
<rect x="1679.37" y="-1132" width="1600" height="1600" rx="100" transform="rotate(45 1679.37 -1132)" fill="url(#paint0_linear_4_3725)"/>
<mask id="mask0_4_3725" style="mask-type:alpha" maskUnits="userSpaceOnUse" x="589" y="-1091" width="2181" height="2181">
<rect x="1679.37" y="-1132" width="1600" height="1600" rx="100" transform="rotate(45 1679.37 -1132)" fill="white"/>
</mask>
<g mask="url(#mask0_4_3725)">
<g style="mix-blend-mode:screen" opacity="0.215346">
<rect x="478.809" y="-1000" width="1333.33" height="1333.33" rx="100" transform="rotate(45 478.809 -1000)" fill="#ADCBFE"/>
</g>
<g style="mix-blend-mode:screen" opacity="0.158873">
<rect x="1678.81" y="-1258.95" width="1333.33" height="1333.33" rx="100" transform="rotate(45 1678.81 -1258.95)" fill="#D1DFFA"/>
</g>
<path d="M933.448 666.664V668H925.072V666.831L929.265 662.164C929.78 661.59 930.179 661.104 930.46 660.705C930.747 660.301 930.946 659.94 931.058 659.624C931.175 659.302 931.233 658.974 931.233 658.64C931.233 658.218 931.146 657.837 930.97 657.497C930.8 657.151 930.548 656.876 930.214 656.671C929.88 656.466 929.476 656.363 929.001 656.363C928.433 656.363 927.958 656.475 927.577 656.697C927.202 656.914 926.921 657.219 926.733 657.611C926.546 658.004 926.452 658.455 926.452 658.965H924.826C924.826 658.244 924.984 657.585 925.301 656.987C925.617 656.39 926.086 655.915 926.707 655.563C927.328 655.206 928.093 655.027 929.001 655.027C929.81 655.027 930.501 655.171 931.075 655.458C931.649 655.739 932.089 656.138 932.394 656.653C932.704 657.163 932.859 657.761 932.859 658.446C932.859 658.821 932.795 659.202 932.666 659.589C932.543 659.97 932.37 660.351 932.147 660.731C931.931 661.112 931.676 661.487 931.383 661.856C931.096 662.226 930.788 662.589 930.46 662.946L927.032 666.664H933.448ZM940.858 666.154V654.5H942.493V668H940.999L940.858 666.154ZM934.46 663.351V663.166C934.46 662.439 934.548 661.78 934.724 661.188C934.905 660.591 935.16 660.078 935.488 659.65C935.822 659.223 936.218 658.895 936.675 658.666C937.138 658.432 937.653 658.314 938.222 658.314C938.819 658.314 939.341 658.42 939.786 658.631C940.237 658.836 940.618 659.138 940.929 659.536C941.245 659.929 941.494 660.403 941.676 660.96C941.857 661.517 941.983 662.146 942.054 662.85V663.658C941.989 664.355 941.863 664.982 941.676 665.539C941.494 666.096 941.245 666.57 940.929 666.963C940.618 667.355 940.237 667.657 939.786 667.868C939.335 668.073 938.808 668.176 938.204 668.176C937.647 668.176 937.138 668.056 936.675 667.815C936.218 667.575 935.822 667.238 935.488 666.805C935.16 666.371 934.905 665.861 934.724 665.275C934.548 664.684 934.46 664.042 934.46 663.351ZM936.095 663.166V663.351C936.095 663.825 936.142 664.271 936.235 664.687C936.335 665.103 936.487 665.469 936.692 665.785C936.897 666.102 937.158 666.351 937.475 666.532C937.791 666.708 938.169 666.796 938.608 666.796C939.147 666.796 939.59 666.682 939.936 666.453C940.287 666.225 940.568 665.923 940.779 665.548C940.99 665.173 941.154 664.766 941.271 664.326V662.208C941.201 661.886 941.099 661.575 940.964 661.276C940.835 660.972 940.665 660.702 940.454 660.468C940.249 660.228 939.994 660.037 939.689 659.896C939.391 659.756 939.036 659.686 938.626 659.686C938.181 659.686 937.797 659.779 937.475 659.967C937.158 660.148 936.897 660.4 936.692 660.723C936.487 661.039 936.335 661.408 936.235 661.83C936.142 662.246 936.095 662.691 936.095 663.166ZM945.966 666.638H946.133C947.07 666.638 947.832 666.506 948.418 666.242C949.004 665.979 949.455 665.624 949.771 665.179C950.088 664.733 950.305 664.232 950.422 663.676C950.539 663.113 950.598 662.536 950.598 661.944V659.984C950.598 659.404 950.53 658.889 950.396 658.438C950.267 657.986 950.085 657.608 949.851 657.304C949.622 656.999 949.361 656.768 949.068 656.609C948.775 656.451 948.465 656.372 948.137 656.372C947.762 656.372 947.425 656.448 947.126 656.601C946.833 656.747 946.584 656.955 946.379 657.225C946.18 657.494 946.027 657.811 945.922 658.174C945.816 658.537 945.764 658.933 945.764 659.36C945.764 659.741 945.811 660.11 945.904 660.468C945.998 660.825 946.142 661.147 946.335 661.435C946.528 661.722 946.769 661.95 947.056 662.12C947.349 662.284 947.691 662.366 948.084 662.366C948.447 662.366 948.787 662.296 949.104 662.155C949.426 662.009 949.71 661.812 949.956 661.566C950.208 661.314 950.407 661.03 950.554 660.714C950.706 660.397 950.794 660.066 950.817 659.721H951.591C951.591 660.207 951.494 660.688 951.301 661.162C951.113 661.631 950.85 662.059 950.51 662.445C950.17 662.832 949.771 663.143 949.314 663.377C948.857 663.605 948.359 663.72 947.82 663.72C947.188 663.72 946.64 663.597 946.177 663.351C945.714 663.104 945.333 662.776 945.034 662.366C944.741 661.956 944.521 661.499 944.375 660.995C944.234 660.485 944.164 659.97 944.164 659.448C944.164 658.839 944.249 658.268 944.419 657.734C944.589 657.201 944.841 656.732 945.175 656.328C945.509 655.918 945.922 655.599 946.414 655.37C946.912 655.142 947.486 655.027 948.137 655.027C948.869 655.027 949.493 655.174 950.009 655.467C950.524 655.76 950.943 656.152 951.266 656.645C951.594 657.137 951.834 657.69 951.986 658.306C952.139 658.921 952.215 659.554 952.215 660.204V660.793C952.215 661.455 952.171 662.129 952.083 662.814C952.001 663.494 951.84 664.145 951.6 664.766C951.365 665.387 951.022 665.943 950.571 666.436C950.12 666.922 949.531 667.309 948.805 667.596C948.084 667.877 947.193 668.018 946.133 668.018H945.966V666.638ZM954.141 654.5H955.775V666.154L955.635 668H954.141V654.5ZM962.2 663.166V663.351C962.2 664.042 962.118 664.684 961.954 665.275C961.79 665.861 961.55 666.371 961.233 666.805C960.917 667.238 960.53 667.575 960.073 667.815C959.616 668.056 959.092 668.176 958.5 668.176C957.896 668.176 957.366 668.073 956.909 667.868C956.458 667.657 956.077 667.355 955.767 666.963C955.456 666.57 955.207 666.096 955.02 665.539C954.838 664.982 954.712 664.355 954.642 663.658V662.85C954.712 662.146 954.838 661.517 955.02 660.96C955.207 660.403 955.456 659.929 955.767 659.536C956.077 659.138 956.458 658.836 956.909 658.631C957.36 658.42 957.885 658.314 958.482 658.314C959.08 658.314 959.61 658.432 960.073 658.666C960.536 658.895 960.923 659.223 961.233 659.65C961.55 660.078 961.79 660.591 961.954 661.188C962.118 661.78 962.2 662.439 962.2 663.166ZM960.565 663.351V663.166C960.565 662.691 960.521 662.246 960.434 661.83C960.346 661.408 960.205 661.039 960.012 660.723C959.818 660.4 959.563 660.148 959.247 659.967C958.931 659.779 958.541 659.686 958.078 659.686C957.668 659.686 957.311 659.756 957.006 659.896C956.707 660.037 956.452 660.228 956.241 660.468C956.03 660.702 955.857 660.972 955.723 661.276C955.594 661.575 955.497 661.886 955.433 662.208V664.326C955.526 664.736 955.679 665.132 955.89 665.513C956.106 665.888 956.394 666.195 956.751 666.436C957.114 666.676 957.562 666.796 958.096 666.796C958.535 666.796 958.91 666.708 959.221 666.532C959.537 666.351 959.792 666.102 959.985 665.785C960.185 665.469 960.331 665.103 960.425 664.687C960.519 664.271 960.565 663.825 960.565 663.351ZM966.183 668H964.557V657.488C964.557 656.803 964.68 656.226 964.926 655.757C965.178 655.282 965.538 654.925 966.007 654.685C966.476 654.438 967.032 654.315 967.677 654.315C967.864 654.315 968.052 654.327 968.239 654.351C968.433 654.374 968.62 654.409 968.802 654.456L968.714 655.783C968.591 655.754 968.45 655.733 968.292 655.722C968.14 655.71 967.987 655.704 967.835 655.704C967.489 655.704 967.19 655.774 966.938 655.915C966.692 656.05 966.505 656.249 966.376 656.513C966.247 656.776 966.183 657.102 966.183 657.488V668ZM968.204 658.49V659.738H963.054V658.49H968.204ZM971.712 660.802H972.872C973.44 660.802 973.909 660.708 974.278 660.521C974.653 660.327 974.932 660.066 975.113 659.738C975.301 659.404 975.395 659.029 975.395 658.613C975.395 658.121 975.312 657.708 975.148 657.374C974.984 657.04 974.738 656.788 974.41 656.618C974.082 656.448 973.666 656.363 973.162 656.363C972.705 656.363 972.301 656.454 971.949 656.636C971.604 656.812 971.331 657.063 971.132 657.392C970.938 657.72 970.842 658.106 970.842 658.552H969.216C969.216 657.901 969.38 657.31 969.708 656.776C970.036 656.243 970.496 655.818 971.088 655.502C971.686 655.186 972.377 655.027 973.162 655.027C973.936 655.027 974.612 655.165 975.192 655.44C975.772 655.71 976.224 656.114 976.546 656.653C976.868 657.187 977.029 657.852 977.029 658.648C977.029 658.971 976.953 659.316 976.801 659.686C976.654 660.049 976.423 660.389 976.106 660.705C975.796 661.021 975.392 661.282 974.894 661.487C974.396 661.687 973.798 661.786 973.101 661.786H971.712V660.802ZM971.712 662.138V661.162H973.101C973.915 661.162 974.589 661.259 975.122 661.452C975.655 661.646 976.074 661.903 976.379 662.226C976.689 662.548 976.906 662.902 977.029 663.289C977.158 663.67 977.223 664.051 977.223 664.432C977.223 665.029 977.12 665.56 976.915 666.022C976.716 666.485 976.432 666.878 976.062 667.2C975.699 667.522 975.271 667.766 974.779 667.93C974.287 668.094 973.751 668.176 973.171 668.176C972.614 668.176 972.09 668.097 971.598 667.938C971.111 667.78 970.681 667.552 970.306 667.253C969.931 666.948 969.638 666.576 969.427 666.137C969.216 665.691 969.11 665.185 969.11 664.616H970.736C970.736 665.062 970.833 665.451 971.026 665.785C971.226 666.119 971.507 666.38 971.87 666.567C972.239 666.749 972.673 666.84 973.171 666.84C973.669 666.84 974.097 666.755 974.454 666.585C974.817 666.409 975.096 666.146 975.289 665.794C975.488 665.442 975.588 665 975.588 664.467C975.588 663.934 975.477 663.497 975.254 663.157C975.031 662.812 974.715 662.557 974.305 662.393C973.9 662.223 973.423 662.138 972.872 662.138H971.712Z" fill="#595F6F"/>
<g opacity="0.5" filter="url(#filter0_i_4_3725)">
<path fill-rule="evenodd" clip-rule="evenodd" d="M1353.6 567.899C1352.73 542.799 1287.37 548.457 1262.16 550.879C1236.95 553.3 1234.66 518.915 1256.41 513.804C1278.16 508.693 1317.61 511.33 1338.05 506.612C1358.49 501.894 1332.63 476.592 1360.48 473.542C1388.33 470.492 1445.91 473.316 1463.08 472.696C1490.04 471.723 1503.88 504.204 1456.64 505.678C1443.61 506.085 1441 534.941 1484.97 527.014C1512.57 522.04 1566.71 521.925 1577.97 534.625C1584.43 541.911 1582.19 561.487 1571.08 572.297C1562.83 580.327 1536.59 581.892 1526.3 583.748C1502.18 588.104 1506.95 611.473 1515.18 616.285C1534.64 627.672 1588.06 606.182 1589.49 637.45C1590.12 651.267 1541.52 653.497 1521.59 653.329C1472.71 652.915 1440.6 657.272 1438.34 640.589C1436.08 623.84 1468.72 635.145 1467.11 614.555C1466.27 603.795 1468.52 580.932 1447.58 582.132C1476.25 580.489 1354.79 601.799 1353.6 567.899Z" fill="url(#paint1_linear_4_3725)"/>
</g>
<g opacity="0.5" filter="url(#filter1_i_4_3725)">
<path fill-rule="evenodd" clip-rule="evenodd" d="M1650.56 469.868C1650.62 444.753 1585.1 447.958 1559.81 449.433C1534.53 450.908 1533.53 416.462 1555.46 412.169C1577.38 407.876 1616.71 411.99 1637.31 408.041C1657.91 404.092 1633.02 377.838 1660.96 375.834C1688.9 373.83 1746.34 378.809 1763.52 378.833C1790.5 378.871 1803.11 411.848 1755.85 411.551C1742.81 411.469 1739.12 440.207 1783.36 433.933C1811.12 429.997 1865.23 431.91 1876.01 445.023C1882.2 452.546 1879.23 472.024 1867.72 482.41C1859.17 490.126 1832.89 490.707 1822.54 492.176C1798.28 495.625 1802.17 519.157 1810.2 524.273C1829.23 536.381 1883.41 516.908 1883.67 548.207C1883.79 562.038 1835.14 562.446 1815.23 561.531C1766.4 559.286 1734.15 562.438 1732.52 545.682C1730.88 528.86 1763.07 541.379 1762.23 520.743C1761.8 509.96 1764.9 487.197 1743.94 487.612C1772.64 487.044 1650.47 503.788 1650.56 469.868Z" fill="url(#paint2_linear_4_3725)"/>
</g>
<path fill-rule="evenodd" clip-rule="evenodd" d="M2249.7 912.239C2199.31 893.102 2070.94 847.579 1958.06 847.579C1845.18 847.579 1705.25 921.264 1614.95 929.625C1524.65 937.987 1292.36 943.778 1292.36 943.778V1056.09H2249.7C2249.7 1056.09 2249.7 985.591 2249.7 912.239Z" fill="url(#paint3_linear_4_3725)"/>
<path d="M1832.26 912.807C1832.26 879.499 1860.08 776.422 1897.64 720.021" stroke="url(#paint4_linear_4_3725)" stroke-width="6" stroke-linecap="round"/>
<ellipse rx="9.65475" ry="30.3054" transform="matrix(0.86589 -0.500234 0.499766 0.86616 1865.11 709.454)" fill="url(#paint5_linear_4_3725)"/>
<ellipse rx="9.65925" ry="30.2912" transform="matrix(0.0348778 0.999392 -0.99939 0.0349212 1920.14 740.381)" fill="url(#paint6_linear_4_3725)"/>
<ellipse rx="9.65925" ry="30.2912" transform="matrix(-0.0174416 0.999848 -0.999848 -0.0174633 1902.17 784.347)" fill="url(#paint7_linear_4_3725)"/>
<ellipse rx="9.65928" ry="30.2912" transform="matrix(-0.0174415 0.999848 -0.999848 -0.0174633 1887.52 826.983)" fill="url(#paint8_linear_4_3725)"/>
<ellipse rx="9.65503" ry="30.3045" transform="matrix(0.838515 0.544878 -0.5444 0.838826 1917.32 688.251)" fill="url(#paint9_linear_4_3725)"/>
<ellipse rx="9.65583" ry="30.302" transform="matrix(0.754507 -0.656292 0.655826 0.754912 1841.16 755.966)" fill="url(#paint10_linear_4_3725)"/>
<ellipse rx="9.65646" ry="30.3" transform="matrix(0.681771 -0.731565 0.731142 0.682226 1823.18 802.597)" fill="url(#paint11_linear_4_3725)"/>
<g opacity="0.3">
<path fill-rule="evenodd" clip-rule="evenodd" d="M1224.55 850.669C1217.68 856.747 1191.57 844.592 1181.22 825.725C1170.87 806.858 1190.07 800.142 1163.95 769.967C1137.83 739.792 1121.07 728.235 1136.92 678.496C1152.77 628.758 1130.87 601.115 1159.81 588.139C1188.74 575.162 1205.41 618.23 1202.09 656.112C1198.77 693.995 1205.56 701.846 1233.86 697.92C1262.16 693.995 1238.3 749.609 1238.3 761.749C1238.3 773.889 1255.46 796.437 1251.9 813.401C1248.34 830.365 1231.41 844.592 1224.55 850.669Z" fill="url(#paint12_linear_4_3725)"/>
<path d="M1208.02 797.784C1213.1 789.551 1223.17 762.034 1223.17 741.756" stroke="url(#paint13_linear_4_3725)" stroke-width="6" stroke-linecap="round"/>
<path d="M1188.01 743.417C1188.01 734.099 1161.87 727.558 1149.07 709.878" stroke="url(#paint14_linear_4_3725)" stroke-width="6" stroke-linecap="round"/>
<path d="M1246.13 933.935C1244.39 925.3 1239.84 891.422 1226.62 851.772C1205.72 789.034 1173.3 707.098 1173.3 651.773" stroke="url(#paint15_linear_4_3725)" stroke-width="6" stroke-linecap="round"/>
</g>
<ellipse opacity="0.084933" cx="1819.96" cy="914.861" rx="58.9181" ry="3.33078" fill="#8699BF"/>
<path fill-rule="evenodd" clip-rule="evenodd" d="M1076 926.894C1136.73 907.757 1291.43 862.234 1427.46 862.234C1563.5 862.234 1732.14 935.919 1840.96 944.281C1949.79 952.643 2229.73 958.434 2229.73 958.434V1168H1076C1076 1168 1076 1000.25 1076 926.894Z" fill="url(#paint16_linear_4_3725)"/>
<path fill-rule="evenodd" clip-rule="evenodd" d="M1076 926.894C1136.73 907.757 1291.43 862.234 1427.46 862.234C1563.5 862.234 1732.14 935.919 1840.96 944.281C1949.79 952.643 2229.73 958.434 2229.73 958.434V1168H1076C1076 1168 1076 1000.25 1076 926.894Z" fill="url(#paint17_linear_4_3725)"/>
<g opacity="0.3">
<path d="M1827.21 914.848C1834.92 891.09 1838.87 811.086 1825.02 762.108" stroke="url(#paint18_linear_4_3725)" stroke-width="4.5" stroke-linecap="round"/>
<ellipse rx="7.27324" ry="22.7247" transform="matrix(-0.6689 -0.743352 -0.742938 0.669361 1850.78 762.149)" fill="url(#paint19_linear_4_3725)"/>
<ellipse rx="7.27474" ry="22.7201" transform="matrix(-0.341832 0.939761 0.939624 0.342208 1804.19 771.39)" fill="url(#paint20_linear_4_3725)"/>
<ellipse rx="7.27488" ry="22.7196" transform="matrix(-0.292205 0.956356 0.956254 0.292538 1806.88 806.937)" fill="url(#paint21_linear_4_3725)"/>
<ellipse rx="7.27488" ry="22.7196" transform="matrix(-0.292205 0.956356 0.956254 0.292538 1807.5 840.761)" fill="url(#paint22_linear_4_3725)"/>
<ellipse rx="7.27104" ry="22.7316" transform="matrix(-0.965886 0.25897 0.258669 0.965966 1818.29 734.864)" fill="url(#paint23_linear_4_3725)"/>
<ellipse rx="7.27407" ry="22.7222" transform="matrix(-0.514802 -0.857309 -0.857026 0.515274 1857.16 800.903)" fill="url(#paint24_linear_4_3725)"/>
<ellipse rx="7.27445" ry="22.7209" transform="matrix(-0.422403 -0.906408 -0.906207 0.422834 1859.24 838.351)" fill="url(#paint25_linear_4_3725)"/>
</g>
<path fill-rule="evenodd" clip-rule="evenodd" d="M1283.02 911.384C1280.81 910.019 1228.49 887.158 1233.32 882.267C1238.15 877.377 1261.72 877.377 1261.72 877.377C1261.72 877.377 1285.23 912.749 1283.02 911.384Z" fill="url(#paint26_linear_4_3725)" style="mix-blend-mode:multiply"/>
<g filter="url(#filter2_i_4_3725)">
<path fill-rule="evenodd" clip-rule="evenodd" d="M1277.43 872.14C1258.84 867.263 1204 843.684 1220.04 816.088C1236.07 788.492 1252.11 780.546 1236.07 767.934C1220.04 755.322 1231.43 727.272 1247.28 715.727C1263.14 704.182 1225.59 669.791 1242.79 651.594C1259.99 633.397 1314.97 661.506 1316.24 695.914C1317.52 730.322 1330.31 727.939 1336.81 743.475C1343.31 759.01 1298.28 782.329 1304.86 799.209C1311.44 816.088 1349.82 833.692 1327.34 856.431C1304.86 879.17 1296.03 877.017 1277.43 872.14Z" fill="url(#paint27_radial_4_3725)"/>
</g>
<path fill-rule="evenodd" clip-rule="evenodd" d="M1282.38 908.199C1284.55 869.29 1244.46 853.066 1272.97 798.292C1301.49 743.518 1281.67 696.223 1272.97 678.213" fill="black" fill-opacity="0.01"/>
<path d="M1282.38 908.199C1284.55 869.29 1244.46 853.066 1272.97 798.292C1301.49 743.518 1281.67 696.223 1272.97 678.213" stroke="url(#paint28_linear_4_3725)" stroke-width="6" stroke-linecap="round" stroke-linejoin="round"/>
<g opacity="0.3">
<path fill-rule="evenodd" clip-rule="evenodd" d="M1279.71 774.302C1274.75 771.936 1265.6 765.27 1261.07 754.983Z" fill="black" fill-opacity="0.01"/>
<path d="M1279.71 774.302C1274.75 771.936 1265.6 765.27 1261.07 754.983" stroke="url(#paint29_linear_4_3725)" stroke-width="5" stroke-linecap="round" stroke-linejoin="round"/>
</g>
<g opacity="0.3">
<path fill-rule="evenodd" clip-rule="evenodd" d="M1264.4 844.914C1256.68 841.716 1240.89 832.934 1239.77 819.601Z" fill="black" fill-opacity="0.01"/>
<path d="M1264.4 844.914C1256.68 841.716 1240.89 832.934 1239.77 819.601" stroke="url(#paint30_linear_4_3725)" stroke-width="5" stroke-linecap="round" stroke-linejoin="round"/>
</g>
<g opacity="0.3">
<path fill-rule="evenodd" clip-rule="evenodd" d="M1267.07 812.273C1274.02 814.23 1284.32 812.449 1293.03 799.616Z" fill="black" fill-opacity="0.01"/>
<path d="M1267.07 812.273C1274.02 814.23 1284.32 812.449 1293.03 799.616" stroke="url(#paint31_linear_4_3725)" stroke-width="5" stroke-linecap="round" stroke-linejoin="round"/>
</g>
<g opacity="0.3">
<path fill-rule="evenodd" clip-rule="evenodd" d="M1286.37 713.016C1290.9 709.443 1299.71 695.334 1299.02 683.039Z" fill="black" fill-opacity="0.01"/>
<path d="M1286.37 713.016C1290.9 709.443 1299.71 695.334 1299.02 683.039" stroke="url(#paint32_linear_4_3725)" stroke-width="5" stroke-linecap="round" stroke-linejoin="round"/>
</g>
<path opacity="0.5" fill-rule="evenodd" clip-rule="evenodd" d="M1251.75 1010.37L1456.77 930.849H1741.07L1588.96 1032.77" fill="url(#paint33_linear_4_3725)"/>
<ellipse cx="1607.26" cy="932.181" rx="135.811" ry="10.6585" fill="#8699BF"/>
<rect x="1469.45" y="378.605" width="301.581" height="556.906" rx="70" fill="url(#paint34_linear_4_3725)"/>
<rect x="1444.82" y="378.605" width="301.581" height="556.906" rx="70" fill="url(#paint35_linear_4_3725)"/>
<rect x="1516.72" y="414.578" width="158.446" height="9.99233" rx="4.99617" fill="url(#paint36_linear_4_3725)"/>
<ellipse cx="1595.28" cy="895.542" rx="27.9611" ry="27.9785" fill="url(#paint37_linear_4_3725)"/>
<g filter="url(#filter3_d_4_3725)">
<rect x="1457.47" y="458.544" width="276.948" height="397.029" rx="12" fill="white"/>
</g>
<mask id="mask1_4_3725" style="mask-type:alpha" maskUnits="userSpaceOnUse" x="1457" y="458" width="278" height="398">
<rect x="1457.47" y="458.544" width="276.948" height="397.029" rx="12" fill="white"/>
</mask>
<g mask="url(#mask1_4_3725)">
<g opacity="0.6">
<rect x="1470.78" y="762.977" width="250.318" height="75.9418" rx="20" fill="url(#paint38_linear_4_3725)"/>
<ellipse cx="1508.73" cy="800.948" rx="27.9611" ry="27.9785" fill="#A1B8E3"/>
<rect x="1546.68" y="776.3" width="155.118" height="11.3246" rx="5.66232" fill="#A1B8E3"/>
<rect x="1546.68" y="794.953" width="118.502" height="11.3246" rx="5.66232" fill="#A1B8E3"/>
<rect opacity="0.5" x="1546.68" y="817.602" width="43.9389" height="7.9939" rx="3.99695" fill="#A1B8E3"/>
</g>
<g opacity="0.6">
<rect x="1470.78" y="671.048" width="250.318" height="75.9417" rx="20" fill="url(#paint39_linear_4_3725)"/>
<ellipse cx="1508.73" cy="709.019" rx="27.9611" ry="27.9785" fill="#A1B8E3"/>
<rect x="1546.68" y="684.371" width="155.118" height="11.3246" rx="5.66232" fill="#A1B8E3"/>
<rect x="1546.68" y="703.023" width="118.502" height="11.3246" rx="5.66232" fill="#A1B8E3"/>
<rect opacity="0.5" x="1546.68" y="725.673" width="43.9389" height="7.99387" rx="3.99693" fill="#A1B8E3"/>
</g>
<g opacity="0.6">
<rect x="1470.78" y="479.195" width="250.318" height="75.9418" rx="20" fill="url(#paint40_linear_4_3725)"/>
<ellipse cx="1508.73" cy="517.166" rx="27.9611" ry="27.9785" fill="#A1B8E3"/>
<rect x="1546.68" y="492.518" width="155.118" height="11.3246" rx="5.66232" fill="#A1B8E3"/>
<rect x="1546.68" y="511.17" width="118.502" height="11.3247" rx="5.66233" fill="#A1B8E3"/>
<rect opacity="0.5" x="1546.68" y="533.82" width="43.9389" height="7.99387" rx="3.99693" fill="#A1B8E3"/>
</g>
</g>
<g filter="url(#filter4_d_4_3725)">
<rect x="1430.84" y="569.126" width="250.319" height="75.9417" rx="20" fill="url(#paint41_linear_4_3725)"/>
<ellipse cx="1468.79" cy="607.097" rx="27.9611" ry="27.9785" fill="#FFB417"/>
<rect x="1506.73" y="582.449" width="155.118" height="11.3246" rx="5.66232" fill="#FFB417"/>
<rect x="1506.73" y="601.101" width="118.502" height="11.3246" rx="5.66232" fill="#FFB417"/>
<rect opacity="0.5" x="1506.73" y="623.751" width="43.9389" height="7.9939" rx="3.99695" fill="#FFB417"/>
</g>
<path opacity="0.5" fill-rule="evenodd" clip-rule="evenodd" d="M1261.91 1077.38L1532.01 1060.03V1060.03C1525.76 1065.61 1517.95 1069.15 1509.64 1070.18L1312.03 1094.72" fill="url(#paint42_linear_4_3725)"/>
<path opacity="0.5" fill-rule="evenodd" clip-rule="evenodd" d="M1148.5 1051.22H1415.02V1051.22C1410.46 1055.49 1404.5 1057.98 1398.25 1058.21L1213.24 1065.17" fill="url(#paint43_linear_4_3725)"/>
<path fill-rule="evenodd" clip-rule="evenodd" d="M1346.36 765.322C1346.36 777.226 1336.56 800.553 1349.34 806.601C1362.11 812.649 1373.41 781.237 1373.41 781.237C1373.41 781.237 1372.44 758.171 1360.89 758.171C1349.34 758.171 1346.36 753.417 1346.36 765.322Z" fill="url(#paint44_linear_4_3725)"/>
<mask id="mask2_4_3725" style="mask-type:alpha" maskUnits="userSpaceOnUse" x="1342" y="757" width="32" height="51">
<path fill-rule="evenodd" clip-rule="evenodd" d="M1346.36 765.322C1346.36 777.226 1336.56 800.553 1349.34 806.601C1362.11 812.649 1373.41 781.237 1373.41 781.237C1373.41 781.237 1372.44 758.171 1360.89 758.171C1349.34 758.171 1346.36 753.417 1346.36 765.322Z" fill="white"/>
</mask>
<g mask="url(#mask2_4_3725)">
<g opacity="0.5">
<path fill-rule="evenodd" clip-rule="evenodd" d="M1345.62 770.652C1346.65 772.748 1360.69 783.832 1363.02 786.453C1365.34 789.074 1365.87 795.924 1367.2 795.216C1368.54 794.509 1367.2 774.413 1367.2 774.413C1367.2 774.413 1344.59 768.557 1345.62 770.652Z" fill="#3D82F0" style="mix-blend-mode:multiply"/>
</g>
</g>
<path fill-rule="evenodd" clip-rule="evenodd" d="M1369.21 1035.23C1369 1041.38 1367.14 1049.01 1368.62 1052.12C1370.1 1055.22 1377.92 1057.1 1380.51 1057.2C1383.11 1057.29 1384.13 1052.94 1388.08 1055.33C1392.03 1057.72 1415.01 1058.4 1416.82 1049.31C1418.63 1040.22 1406.99 1039.81 1401.81 1039.63C1396.63 1039.45 1391.23 1036.73 1383.77 1029.91C1376.3 1023.09 1369.43 1029.08 1369.21 1035.23Z" fill="url(#paint45_linear_4_3725)"/>
<path d="M1398.13 1044.13C1399.5 1041.07 1395.77 1037.52 1394.83 1037.41" stroke="white" stroke-width="2" stroke-linecap="round"/>
<path d="M1404.37 1044.05C1404.82 1040.39 1402.24 1039.11 1401.21 1038.98" stroke="white" stroke-width="2" stroke-linecap="round"/>
<path fill-rule="evenodd" clip-rule="evenodd" d="M1484.31 1048.17C1484.85 1054.3 1483.94 1062.09 1485.78 1065C1487.63 1067.9 1495.62 1068.82 1498.2 1068.59C1500.79 1068.36 1501.27 1063.92 1505.49 1065.82C1509.7 1067.71 1532.59 1065.58 1533.28 1056.34C1533.97 1047.09 1522.36 1048.11 1517.2 1048.56C1512.04 1049.01 1506.35 1046.97 1498.11 1041.11C1489.87 1035.25 1483.78 1042.04 1484.31 1048.17Z" fill="url(#paint46_linear_4_3725)"/>
<path d="M1514.1 1053.48C1515.09 1050.27 1510.96 1047.2 1510 1047.2" stroke="white" stroke-width="2" stroke-linecap="round"/>
<path d="M1520.29 1052.64C1520.29 1048.95 1517.57 1047.99 1516.53 1047.99" stroke="white" stroke-width="2" stroke-linecap="round"/>
<path fill-rule="evenodd" clip-rule="evenodd" d="M1463.44 827.975C1463.44 827.975 1488.54 919.987 1491.81 940.923C1495.07 961.859 1503.07 1032.63 1501.94 1044.04C1496.48 1049.61 1486.64 1046.28 1484.93 1045.26C1483.21 1044.23 1472.65 986.007 1463.44 963.42C1454.23 940.833 1433.5 920.044 1419.84 897.319C1419.84 912.11 1409.29 951.694 1409.29 951.694C1409.29 951.694 1393.91 1021.6 1388.68 1032.91C1386.2 1036.93 1373.66 1033.98 1368.8 1032.91C1368.8 1022.31 1379.28 968.746 1379.28 950.151C1379.28 931.556 1376.38 897.858 1375.3 884.043C1374.21 870.229 1371.57 843.427 1375.3 827.975C1384.75 827.975 1463.44 827.975 1463.44 827.975Z" fill="url(#paint47_linear_4_3725)"/>
<mask id="mask3_4_3725" style="mask-type:alpha" maskUnits="userSpaceOnUse" x="1368" y="827" width="135" height="221">
<path fill-rule="evenodd" clip-rule="evenodd" d="M1463.44 827.975C1463.44 827.975 1488.54 919.987 1491.81 940.923C1495.07 961.859 1503.07 1032.63 1501.94 1044.04C1496.48 1049.61 1486.64 1046.28 1484.93 1045.26C1483.21 1044.23 1472.65 986.007 1463.44 963.42C1454.23 940.833 1433.5 920.044 1419.84 897.319C1419.84 912.11 1409.29 951.694 1409.29 951.694C1409.29 951.694 1393.91 1021.6 1388.68 1032.91C1386.2 1036.93 1373.66 1033.98 1368.8 1032.91C1368.8 1022.31 1379.28 968.746 1379.28 950.151C1379.28 931.556 1376.38 897.858 1375.3 884.043C1374.21 870.229 1371.57 843.427 1375.3 827.975C1384.75 827.975 1463.44 827.975 1463.44 827.975Z" fill="white"/>
</mask>
<g mask="url(#mask3_4_3725)">
<g opacity="0.5">
<path fill-rule="evenodd" clip-rule="evenodd" d="M1406.6 962.439C1406.6 953.432 1411.24 879.841 1412.31 882.861C1413.37 885.881 1421.67 902.189 1421.67 902.189C1421.67 902.189 1406.6 971.445 1406.6 962.439Z" fill="#A1B8E3" style="mix-blend-mode:multiply"/>
</g>
<path d="M1412.56 882.902C1413.86 888.354 1418.86 895.927 1421.17 900.443" stroke="white" stroke-width="2" stroke-linecap="round"/>
<g opacity="0.5">
<path fill-rule="evenodd" clip-rule="evenodd" d="M1381.1 843.347C1386.97 846.505 1409.95 859.943 1439.55 854.558C1454.18 851.897 1463.58 848.414 1467.8 843.347C1467.8 840.852 1464.26 830.354 1463.27 826.337C1462.28 822.321 1373.92 839.481 1381.1 843.347Z" fill="url(#paint48_linear_4_3725)" style="mix-blend-mode:multiply"/>
</g>
</g>
<path fill-rule="evenodd" clip-rule="evenodd" d="M1419.05 632.389C1419.05 632.389 1422.44 638.962 1428.19 641.753C1433.93 644.544 1436.8 645.909 1436.8 645.909L1434.36 655.387C1434.36 655.387 1438.91 669.324 1436.8 674.023C1434.69 678.722 1428.19 681.843 1424.4 686.033C1420.62 690.223 1417.12 704.436 1417.12 704.436H1392.16L1391.03 686.033C1391.03 686.033 1384.38 659.479 1395.67 645.909C1406.96 632.339 1419.05 632.389 1419.05 632.389Z" fill="url(#paint49_linear_4_3725)"/>
<mask id="mask4_4_3725" style="mask-type:alpha" maskUnits="userSpaceOnUse" x="1389" y="632" width="49" height="73">
<path fill-rule="evenodd" clip-rule="evenodd" d="M1419.05 632.389C1419.05 632.389 1422.44 638.962 1428.19 641.753C1433.93 644.544 1436.8 645.909 1436.8 645.909L1434.36 655.387C1434.36 655.387 1438.91 669.324 1436.8 674.023C1434.69 678.722 1428.19 681.843 1424.4 686.033C1420.62 690.223 1417.12 704.436 1417.12 704.436H1392.16L1391.03 686.033C1391.03 686.033 1384.38 659.479 1395.67 645.909C1406.96 632.339 1419.05 632.389 1419.05 632.389Z" fill="white"/>
</mask>
<g mask="url(#mask4_4_3725)">
<g opacity="0.5">
<path fill-rule="evenodd" clip-rule="evenodd" d="M1427.51 683.531C1421.21 683.531 1411.39 677.95 1409.5 676.043C1407.6 674.136 1425.24 694.764 1423.77 698.05C1422.61 700.642 1418.46 701.434 1421.08 701.434C1430.51 701.434 1433.81 683.531 1427.51 683.531Z" fill="#3D82F0" style="mix-blend-mode:multiply"/>
</g>
</g>
<path fill-rule="evenodd" clip-rule="evenodd" d="M1391.03 685.257C1369.03 664.679 1351.61 647.117 1366.63 622.647C1381.66 598.176 1416.62 589.95 1423.15 619.696C1423.15 632.459 1413.74 639.277 1413.74 639.277C1413.74 639.277 1411.97 642.865 1416.62 646.67C1421.26 650.476 1416.62 653.621 1416.62 653.621C1416.62 653.621 1407.45 647.718 1405.05 655.579C1402.66 663.441 1411.5 666.255 1411.5 668.222C1414.55 675.454 1408.26 682.069 1408.26 682.069C1408.26 682.069 1405.04 685.257 1391.03 685.257Z" fill="url(#paint50_linear_4_3725)"/>
<path fill-rule="evenodd" clip-rule="evenodd" d="M1368.34 713.016C1368.34 713.016 1344.79 754.359 1341.94 763.456C1339.1 772.554 1368.34 777.815 1368.34 777.815L1380.54 725.809L1368.34 713.016Z" fill="url(#paint51_linear_4_3725)"/>
<path fill-rule="evenodd" clip-rule="evenodd" d="M1419.22 698.783C1419.22 698.783 1436.96 703.467 1447.41 715.845C1457.87 728.223 1455.54 765.462 1458.5 787.625C1461.46 809.788 1474.34 825.899 1454.44 838.406C1434.54 850.914 1378.28 848.074 1373.68 838.406C1369.08 828.739 1363.83 769.322 1363.83 769.322C1363.83 769.322 1363.83 715.845 1370.12 711.337C1376.4 706.829 1391.07 698.117 1391.07 698.117C1391.07 698.117 1390.75 699.442 1397.82 700.756C1404.9 702.069 1419.22 698.783 1419.22 698.783Z" fill="#D6E3FA"/>
<mask id="mask5_4_3725" style="mask-type:alpha" maskUnits="userSpaceOnUse" x="1363" y="698" width="103" height="149">
<path fill-rule="evenodd" clip-rule="evenodd" d="M1419.22 698.783C1419.22 698.783 1436.96 703.467 1447.41 715.845C1457.87 728.223 1455.54 765.462 1458.5 787.625C1461.46 809.788 1474.34 825.899 1454.44 838.406C1434.54 850.914 1378.28 848.074 1373.68 838.406C1369.08 828.739 1363.83 769.322 1363.83 769.322C1363.83 769.322 1363.83 715.845 1370.12 711.337C1376.4 706.829 1391.07 698.117 1391.07 698.117C1391.07 698.117 1390.75 699.442 1397.82 700.756C1404.9 702.069 1419.22 698.783 1419.22 698.783Z" fill="white"/>
</mask>
<g mask="url(#mask5_4_3725)">
<path opacity="0.5" fill-rule="evenodd" clip-rule="evenodd" d="M1433.95 741.086C1433.95 741.086 1443.52 785.84 1449.28 794.228C1455.04 802.617 1458.78 828.001 1463.39 831.027C1468 834.054 1474.62 799.427 1471.31 787.572C1468 775.716 1453.08 746.677 1453.08 746.677L1433.95 741.086Z" fill="url(#paint52_linear_4_3725)"/>
<path opacity="0.5" fill-rule="evenodd" clip-rule="evenodd" d="M1395.29 701.182C1399.55 704.009 1410.64 705.539 1419.97 705.539C1429.3 705.539 1432.21 705.638 1436.68 704.278C1441.14 702.919 1439.41 701.182 1436.68 701.182C1433.94 701.182 1425.47 699.189 1420.91 699.189C1416.35 699.189 1391.03 698.356 1395.29 701.182Z" fill="url(#paint53_linear_4_3725)"/>
</g>
<path fill-rule="evenodd" clip-rule="evenodd" d="M1390.27 698.782C1390.27 698.782 1389.72 691.937 1389.72 689.729C1389.72 687.521 1408.09 690.639 1421.32 691.877C1422.75 697.384 1422.5 697.748 1422.5 698.782C1422.5 699.299 1419.19 703.73 1401.43 702.293C1394.94 701.769 1390.27 698.782 1390.27 698.782Z" fill="#E1ECFF"/>
<ellipse rx="18.0306" ry="7.15939" transform="matrix(0.406525 -0.91364 0.913451 0.406948 1477.71 744.093)" fill="#A1B8E3"/>
<path fill-rule="evenodd" clip-rule="evenodd" d="M1477.46 725.131L1496.04 732.785C1496.04 732.785 1512.52 688.786 1513.52 683.075C1514.52 677.365 1510.09 669.307 1509.37 666.434C1508.66 663.561 1508.77 656.8 1510.77 654.326C1512.77 651.852 1513.3 652.735 1514.79 652.363C1516.29 651.99 1525.16 632.96 1526.16 630.569C1527.17 628.178 1528.96 626.678 1530.78 627.475C1532.61 628.271 1532.44 630.398 1531.72 632.279C1531 634.16 1526.95 644.716 1527.41 646.553C1527.87 648.391 1534.99 650.768 1536.98 651.988C1538.97 653.208 1542.35 657.22 1540.66 663.025C1538.97 668.829 1531.16 679.351 1531.72 681.589C1532.28 683.826 1524.39 721.748 1521.88 736.914C1519.37 752.08 1516.09 762.716 1503.28 761.838C1490.47 760.961 1463.92 746.706 1463.92 746.706C1463.92 746.706 1465.65 735.634 1468.97 731.457C1472.29 727.279 1477.46 725.131 1477.46 725.131Z" fill="url(#paint54_linear_4_3725)"/>
<mask id="mask6_4_3725" style="mask-type:alpha" maskUnits="userSpaceOnUse" x="1463" y="627" width="79" height="135">
<path fill-rule="evenodd" clip-rule="evenodd" d="M1477.46 725.131L1496.04 732.785C1496.04 732.785 1512.52 688.786 1513.52 683.075C1514.52 677.365 1510.09 669.307 1509.37 666.434C1508.66 663.561 1508.77 656.8 1510.77 654.326C1512.77 651.852 1513.3 652.735 1514.79 652.363C1516.29 651.99 1525.16 632.96 1526.16 630.569C1527.17 628.178 1528.96 626.678 1530.78 627.475C1532.61 628.271 1532.44 630.398 1531.72 632.279C1531 634.16 1526.95 644.716 1527.41 646.553C1527.87 648.391 1534.99 650.768 1536.98 651.988C1538.97 653.208 1542.35 657.22 1540.66 663.025C1538.97 668.829 1531.16 679.351 1531.72 681.589C1532.28 683.826 1524.39 721.748 1521.88 736.914C1519.37 752.08 1516.09 762.716 1503.28 761.838C1490.47 760.961 1463.92 746.706 1463.92 746.706C1463.92 746.706 1465.65 735.634 1468.97 731.457C1472.29 727.279 1477.46 725.131 1477.46 725.131Z" fill="white"/>
</mask>
<g mask="url(#mask6_4_3725)">
<g opacity="0.5">
<path fill-rule="evenodd" clip-rule="evenodd" d="M1483.56 727.168C1483.56 727.168 1479.62 750.219 1482.09 757.002C1484.56 763.784 1471.01 754.213 1471.01 754.213C1471.01 754.213 1471.27 744.335 1473.35 739.846C1475.44 735.357 1483.56 727.168 1483.56 727.168Z" fill="#3D82F0" style="mix-blend-mode:multiply"/>
</g>
<path d="M1495.65 732.238C1496.69 732.718 1498.68 733.466 1500.46 735.93" stroke="#223762" stroke-width="2" stroke-linecap="round"/>
</g>
<path fill-rule="evenodd" clip-rule="evenodd" d="M1470.79 760.756C1472.88 750.278 1475.9 735.859 1484.27 727.229C1454.38 714.329 1444.95 709.755 1435.55 705.737C1426.15 701.719 1417.6 728.184 1435.55 741.349C1453.51 754.513 1465.8 758.551 1470.79 760.756Z" fill="url(#paint55_linear_4_3725)"/>
<path fill-rule="evenodd" clip-rule="evenodd" d="M1622.94 1034.65H1845.16C1852.47 1034.65 1860.26 1039.58 1862.56 1045.67L1878 1086.44C1880.31 1092.52 1875.12 1097.45 1866.42 1097.45H1601.69C1592.98 1097.45 1587.8 1092.52 1590.1 1086.44L1605.54 1045.67C1607.85 1039.58 1615.64 1034.65 1622.94 1034.65Z" fill="#EBF1FD"/>
<mask id="mask7_4_3725" style="mask-type:alpha" maskUnits="userSpaceOnUse" x="1589" y="1034" width="290" height="64">
<path fill-rule="evenodd" clip-rule="evenodd" d="M1622.94 1034.65H1845.16C1852.47 1034.65 1860.26 1039.58 1862.56 1045.67L1878 1086.44C1880.31 1092.52 1875.12 1097.45 1866.42 1097.45H1601.69C1592.98 1097.45 1587.8 1092.52 1590.1 1086.44L1605.54 1045.67C1607.85 1039.58 1615.64 1034.65 1622.94 1034.65Z" fill="white"/>
</mask>
<g mask="url(#mask7_4_3725)">
<path fill-rule="evenodd" clip-rule="evenodd" d="M1632.73 1089.17C1650.62 1089.17 1666.98 1078.81 1669.28 1066.03C1671.57 1053.25 1660.68 1042.89 1644.95 1042.89C1629.22 1042.89 1612.86 1053.25 1608.41 1066.03C1603.95 1078.81 1614.84 1089.17 1632.73 1089.17Z" fill="#CAD7F1"/>
<path fill-rule="evenodd" clip-rule="evenodd" d="M1689.36 1045.89H1837.01C1840.21 1045.89 1843.49 1047.99 1844.32 1050.57C1845.14 1053.16 1843.14 1055.26 1839.85 1055.26H1688.12C1684.82 1055.26 1682.46 1053.16 1682.85 1050.57C1683.23 1047.99 1686.15 1045.89 1689.36 1045.89Z" fill="#CAD7F1"/>
<path fill-rule="evenodd" clip-rule="evenodd" d="M1686.97 1061.63H1802.03C1805.38 1061.63 1808.54 1063.73 1809.09 1066.32C1809.63 1068.9 1807.28 1071 1803.83 1071H1685.74C1682.29 1071 1679.81 1068.9 1680.2 1066.32C1680.59 1063.73 1683.62 1061.63 1686.97 1061.63Z" fill="#CAD7F1"/>
<path opacity="0.5" fill-rule="evenodd" clip-rule="evenodd" d="M1683.21 1080.37H1723.84C1726.33 1080.37 1728.33 1081.85 1728.3 1083.68C1728.27 1085.5 1726.19 1086.98 1723.65 1086.98H1682.3C1679.77 1086.98 1677.93 1085.5 1678.2 1083.68C1678.48 1081.85 1680.72 1080.37 1683.21 1080.37Z" fill="#CAD7F1"/>
</g>
<g filter="url(#filter5_d_4_3725)">
<path d="M1578.33 1064.86L1867.31 1069.91V1069.91C1867.13 1079.84 1858.94 1087.75 1849.01 1087.58L1596.01 1083.16C1586.07 1082.99 1578.16 1074.79 1578.33 1064.86V1064.86Z" fill="#CAD7F1"/>
<path fill-rule="evenodd" clip-rule="evenodd" d="M1613.35 1009.99L1835.53 1013.87C1842.84 1014 1850.54 1019.07 1852.74 1025.2L1867.47 1066.23C1869.66 1072.35 1864.39 1077.19 1855.69 1077.04L1591 1072.42C1582.29 1072.27 1577.2 1067.24 1579.61 1061.2L1595.76 1020.71C1598.17 1014.66 1606.04 1009.87 1613.35 1009.99Z" fill="#EBF1FD"/>
<mask id="mask8_4_3725" style="mask-type:alpha" maskUnits="userSpaceOnUse" x="1579" y="1009" width="289" height="69">
<path fill-rule="evenodd" clip-rule="evenodd" d="M1613.35 1009.99L1835.53 1013.87C1842.84 1014 1850.54 1019.07 1852.74 1025.2L1867.47 1066.23C1869.66 1072.35 1864.39 1077.19 1855.69 1077.04L1591 1072.42C1582.29 1072.27 1577.2 1067.24 1579.61 1061.2L1595.76 1020.71C1598.17 1014.66 1606.04 1009.87 1613.35 1009.99Z" fill="white"/>
</mask>
<g mask="url(#mask8_4_3725)">
<path fill-rule="evenodd" clip-rule="evenodd" d="M1622.19 1064.68C1640.07 1064.99 1656.61 1054.92 1659.12 1042.18C1661.64 1029.45 1650.93 1018.9 1635.2 1018.62C1619.48 1018.35 1602.94 1028.42 1598.27 1041.12C1593.59 1053.82 1604.3 1064.37 1622.19 1064.68Z" fill="#CAD7F1"/>
<path fill-rule="evenodd" clip-rule="evenodd" d="M1679.55 1022.4L1827.18 1024.97C1830.39 1025.03 1833.62 1027.18 1834.41 1029.78C1835.19 1032.38 1833.15 1034.45 1829.86 1034.39L1678.15 1031.74C1674.86 1031.68 1672.53 1029.54 1672.96 1026.96C1673.39 1024.38 1676.34 1022.34 1679.55 1022.4Z" fill="#CAD7F1"/>
<path fill-rule="evenodd" clip-rule="evenodd" d="M1676.9 1038.09L1791.94 1040.1C1795.29 1040.16 1798.41 1042.31 1798.91 1044.91C1799.41 1047.5 1797.02 1049.56 1793.57 1049.5L1675.5 1047.44C1672.05 1047.38 1669.61 1045.24 1670.04 1042.66C1670.47 1040.08 1673.54 1038.03 1676.9 1038.09Z" fill="#CAD7F1"/>
<path opacity="0.5" fill-rule="evenodd" clip-rule="evenodd" d="M1672.81 1056.76L1713.43 1057.47C1715.92 1057.52 1717.89 1059.03 1717.83 1060.86C1717.77 1062.68 1715.66 1064.12 1713.13 1064.08L1671.79 1063.36C1669.25 1063.31 1667.44 1061.8 1667.74 1059.98C1668.05 1058.16 1670.31 1056.72 1672.81 1056.76Z" fill="#CAD7F1"/>
</g>
</g>
<g filter="url(#filter6_d_4_3725)">
<path d="M1595.24 1048.57L1884.08 1038.48V1038.48C1884.43 1048.41 1876.66 1056.74 1866.73 1057.09L1613.84 1065.92C1603.91 1066.27 1595.58 1058.5 1595.24 1048.57V1048.57Z" fill="#CAD7F1"/>
<path fill-rule="evenodd" clip-rule="evenodd" d="M1627.33 991.949L1849.42 984.189C1856.72 983.934 1864.68 988.592 1867.19 994.594L1884.05 1034.8C1886.56 1040.8 1881.55 1045.91 1872.85 1046.22L1608.28 1055.46C1599.58 1055.76 1594.23 1051.01 1596.32 1044.85L1610.33 1003.57C1612.42 997.407 1620.03 992.205 1627.33 991.949Z" fill="#EBF1FD"/>
<mask id="mask9_4_3725" style="mask-type:alpha" maskUnits="userSpaceOnUse" x="1595" y="984" width="290" height="72">
<path fill-rule="evenodd" clip-rule="evenodd" d="M1627.33 991.949L1849.42 984.189C1856.72 983.934 1864.68 988.592 1867.19 994.594L1884.05 1034.8C1886.56 1040.8 1881.55 1045.91 1872.85 1046.22L1608.28 1055.46C1599.58 1055.76 1594.23 1051.01 1596.32 1044.85L1610.33 1003.57C1612.42 997.407 1620.03 992.205 1627.33 991.949Z" fill="white"/>
</mask>
<g mask="url(#mask9_4_3725)">
<path fill-rule="evenodd" clip-rule="evenodd" d="M1639.02 1046.1C1656.9 1045.47 1672.89 1034.55 1674.73 1021.7C1676.58 1008.85 1665.33 998.872 1649.61 999.421C1633.9 999.97 1617.91 1010.9 1613.9 1023.82C1609.9 1036.75 1621.14 1046.72 1639.02 1046.1Z" fill="#CAD7F1"/>
<path fill-rule="evenodd" clip-rule="evenodd" d="M1694.1 1000.87L1841.66 995.711C1844.86 995.599 1848.21 997.58 1849.13 1000.14C1850.05 1002.69 1848.12 1004.86 1844.82 1004.97L1693.19 1010.27C1689.89 1010.39 1687.46 1008.37 1687.76 1005.77C1688.05 1003.18 1690.89 1000.98 1694.1 1000.87Z" fill="#CAD7F1"/>
<path fill-rule="evenodd" clip-rule="evenodd" d="M1692.27 1016.68L1807.25 1012.66C1810.61 1012.55 1813.84 1014.53 1814.47 1017.1C1815.1 1019.66 1812.82 1021.84 1809.38 1021.96L1691.36 1026.08C1687.92 1026.21 1685.37 1024.2 1685.66 1021.6C1685.96 1019 1688.91 1016.8 1692.27 1016.68Z" fill="#CAD7F1"/>
<path opacity="0.5" fill-rule="evenodd" clip-rule="evenodd" d="M1689.16 1035.54L1729.76 1034.12C1732.25 1034.04 1734.3 1035.44 1734.34 1037.27C1734.37 1039.1 1732.34 1040.65 1729.81 1040.74L1688.48 1042.18C1685.95 1042.27 1684.06 1040.85 1684.27 1039.02C1684.48 1037.19 1686.67 1035.63 1689.16 1035.54Z" fill="#CAD7F1"/>
</g>
</g>
<path d="M1568.65 1021.99H1857.55V1021.99C1857.55 1031.99 1849.44 1040.1 1839.44 1040.1H1586.75C1576.75 1040.1 1568.65 1031.99 1568.65 1021.99V1021.99Z" fill="#C6D5EF"/>
<path fill-rule="evenodd" clip-rule="evenodd" d="M1602.68 966.155H1824.82C1832.12 966.155 1839.91 971.121 1842.21 977.246L1857.65 1018.28C1859.95 1024.41 1854.76 1029.38 1846.07 1029.38H1581.43C1572.74 1029.38 1567.55 1024.41 1569.85 1018.28L1585.29 977.246C1587.59 971.121 1595.38 966.155 1602.68 966.155Z" fill="#EBF1FD"/>
<mask id="mask10_4_3725" style="mask-type:alpha" maskUnits="userSpaceOnUse" x="1569" y="966" width="290" height="64">
<path fill-rule="evenodd" clip-rule="evenodd" d="M1602.68 966.155H1824.82C1832.12 966.155 1839.91 971.121 1842.21 977.246L1857.65 1018.28C1859.95 1024.41 1854.76 1029.38 1846.07 1029.38H1581.43C1572.74 1029.38 1567.55 1024.41 1569.85 1018.28L1585.29 977.246C1587.59 971.121 1595.38 966.155 1602.68 966.155Z" fill="white"/>
</mask>
<g mask="url(#mask10_4_3725)">
<path opacity="0.5" fill-rule="evenodd" clip-rule="evenodd" d="M1612.47 1021.04C1630.35 1021.04 1646.71 1010.61 1649 997.747C1651.29 984.883 1640.4 974.455 1624.68 974.455C1608.96 974.455 1592.61 984.883 1588.15 997.747C1583.7 1010.61 1594.59 1021.04 1612.47 1021.04Z" fill="#AABFE5"/>
<path opacity="0.5" fill-rule="evenodd" clip-rule="evenodd" d="M1669.07 977.473H1816.66C1819.87 977.473 1823.14 979.583 1823.97 982.187C1824.8 984.79 1822.8 986.9 1819.5 986.9H1667.84C1664.54 986.9 1662.18 984.79 1662.56 982.187C1662.95 979.583 1665.86 977.473 1669.07 977.473Z" fill="#AABFE5"/>
<path opacity="0.5" fill-rule="evenodd" clip-rule="evenodd" d="M1666.69 993.318H1781.7C1785.05 993.318 1788.21 995.428 1788.75 998.031C1789.3 1000.63 1786.94 1002.75 1783.5 1002.75H1665.45C1662.01 1002.75 1659.53 1000.63 1659.92 998.031C1660.3 995.428 1663.34 993.318 1666.69 993.318Z" fill="#AABFE5"/>
<path opacity="0.3" fill-rule="evenodd" clip-rule="evenodd" d="M1662.93 1012.18H1703.54C1706.03 1012.18 1708.03 1013.67 1708 1015.51C1707.97 1017.35 1705.89 1018.84 1703.35 1018.84H1662.02C1659.49 1018.84 1657.65 1017.35 1657.92 1015.51C1658.19 1013.67 1660.44 1012.18 1662.93 1012.18Z" fill="#A1B8E3"/>
</g>
</g>
</g>
</g>
<defs>
<filter id="filter0_i_4_3725" x="1241.54" y="458.097" width="347.95" height="195.455" filterUnits="userSpaceOnUse" color-interpolation-filters="sRGB">
<feFlood flood-opacity="0" result="BackgroundImageFix"/>
<feBlend mode="normal" in="SourceGraphic" in2="BackgroundImageFix" result="shape"/>
<feColorMatrix in="SourceAlpha" type="matrix" values="0 0 0 0 0 0 0 0 0 0 0 0 0 0 0 0 0 0 127 0" result="hardAlpha"/>
<feOffset dy="-14"/>
<feGaussianBlur stdDeviation="12.5"/>
<feComposite in2="hardAlpha" operator="arithmetic" k2="-1" k3="1"/>
<feColorMatrix type="matrix" values="0 0 0 0 0.788056 0 0 0 0 0.827193 0 0 0 0 0.89764 0 0 0 0.337126 0"/>
<feBlend mode="normal" in2="shape" result="effect1_innerShadow_4_3725"/>
</filter>
<filter id="filter1_i_4_3725" x="1539.87" y="361.359" width="343.801" height="200.468" filterUnits="userSpaceOnUse" color-interpolation-filters="sRGB">
<feFlood flood-opacity="0" result="BackgroundImageFix"/>
<feBlend mode="normal" in="SourceGraphic" in2="BackgroundImageFix" result="shape"/>
<feColorMatrix in="SourceAlpha" type="matrix" values="0 0 0 0 0 0 0 0 0 0 0 0 0 0 0 0 0 0 127 0" result="hardAlpha"/>
<feOffset dy="-14"/>
<feGaussianBlur stdDeviation="12.5"/>
<feComposite in2="hardAlpha" operator="arithmetic" k2="-1" k3="1"/>
<feColorMatrix type="matrix" values="0 0 0 0 0.788056 0 0 0 0 0.827193 0 0 0 0 0.89764 0 0 0 0.337126 0"/>
<feBlend mode="normal" in2="shape" result="effect1_innerShadow_4_3725"/>
</filter>
<filter id="filter2_i_4_3725" x="1209.13" y="639.88" width="128.317" height="235.434" filterUnits="userSpaceOnUse" color-interpolation-filters="sRGB">
<feFlood flood-opacity="0" result="BackgroundImageFix"/>
<feBlend mode="normal" in="SourceGraphic" in2="BackgroundImageFix" result="shape"/>
<feColorMatrix in="SourceAlpha" type="matrix" values="0 0 0 0 0 0 0 0 0 0 0 0 0 0 0 0 0 0 127 0" result="hardAlpha"/>
<feOffset dx="-8" dy="-6"/>
<feGaussianBlur stdDeviation="15"/>
<feComposite in2="hardAlpha" operator="arithmetic" k2="-1" k3="1"/>
<feColorMatrix type="matrix" values="0 0 0 0 0.269084 0 0 0 0 0.79451 0 0 0 0 0.470313 0 0 0 0.5 0"/>
<feBlend mode="normal" in2="shape" result="effect1_innerShadow_4_3725"/>
</filter>
<filter id="filter3_d_4_3725" x="1295.47" y="296.544" width="600.948" height="721.029" filterUnits="userSpaceOnUse" color-interpolation-filters="sRGB">
<feFlood flood-opacity="0" result="BackgroundImageFix"/>
<feColorMatrix in="SourceAlpha" type="matrix" values="0 0 0 0 0 0 0 0 0 0 0 0 0 0 0 0 0 0 127 0" result="hardAlpha"/>
<feOffset/>
<feGaussianBlur stdDeviation="81"/>
<feColorMatrix type="matrix" values="0 0 0 0 1 0 0 0 0 1 0 0 0 0 1 0 0 0 1 0"/>
<feBlend mode="normal" in2="BackgroundImageFix" result="effect1_dropShadow_4_3725"/>
<feBlend mode="normal" in="SourceGraphic" in2="effect1_dropShadow_4_3725" result="shape"/>
</filter>
<filter id="filter4_d_4_3725" x="1430.84" y="569.126" width="267.319" height="92.9417" filterUnits="userSpaceOnUse" color-interpolation-filters="sRGB">
<feFlood flood-opacity="0" result="BackgroundImageFix"/>
<feColorMatrix in="SourceAlpha" type="matrix" values="0 0 0 0 0 0 0 0 0 0 0 0 0 0 0 0 0 0 127 0" result="hardAlpha"/>
<feOffset dx="17" dy="17"/>
<feColorMatrix type="matrix" values="0 0 0 0 1 0 0 0 0 0.706613 0 0 0 0 0.0893703 0 0 0 0.173347 0"/>
<feBlend mode="normal" in2="BackgroundImageFix" result="effect1_dropShadow_4_3725"/>
<feBlend mode="normal" in="SourceGraphic" in2="effect1_dropShadow_4_3725" result="shape"/>
</filter>
<filter id="filter5_d_4_3725" x="1555.33" y="999.991" width="323.634" height="111.591" filterUnits="userSpaceOnUse" color-interpolation-filters="sRGB">
<feFlood flood-opacity="0" result="BackgroundImageFix"/>
<feColorMatrix in="SourceAlpha" type="matrix" values="0 0 0 0 0 0 0 0 0 0 0 0 0 0 0 0 0 0 127 0" result="hardAlpha"/>
<feOffset dx="-6" dy="7"/>
<feGaussianBlur stdDeviation="8.5"/>
<feColorMatrix type="matrix" values="0 0 0 0 0.260846 0 0 0 0 0.436705 0 0 0 0 0.80195 0 0 0 0.186 0"/>
<feBlend mode="normal" in2="BackgroundImageFix" result="effect1_dropShadow_4_3725"/>
<feBlend mode="normal" in="SourceGraphic" in2="effect1_dropShadow_4_3725" result="shape"/>
</filter>
<filter id="filter6_d_4_3725" x="1572.24" y="974.179" width="323.457" height="115.756" filterUnits="userSpaceOnUse" color-interpolation-filters="sRGB">
<feFlood flood-opacity="0" result="BackgroundImageFix"/>
<feColorMatrix in="SourceAlpha" type="matrix" values="0 0 0 0 0 0 0 0 0 0 0 0 0 0 0 0 0 0 127 0" result="hardAlpha"/>
<feOffset dx="-6" dy="7"/>
<feGaussianBlur stdDeviation="8.5"/>
<feColorMatrix type="matrix" values="0 0 0 0 0.260846 0 0 0 0 0.436705 0 0 0 0 0.80195 0 0 0 0.186 0"/>
<feBlend mode="normal" in2="BackgroundImageFix" result="effect1_dropShadow_4_3725"/>
<feBlend mode="normal" in="SourceGraphic" in2="effect1_dropShadow_4_3725" result="shape"/>
</filter>
<linearGradient id="paint0_linear_4_3725" x1="2168.28" y1="-583.376" x2="1996.6" y2="382.16" gradientUnits="userSpaceOnUse">
<stop stop-color="#A0C0FF"/>
<stop offset="1" stop-color="#E4EBFA"/>
</linearGradient>
<linearGradient id="paint1_linear_4_3725" x1="1472.84" y1="629.641" x2="1491.23" y2="506.023" gradientUnits="userSpaceOnUse">
<stop stop-color="#ECF1FF"/>
<stop offset="1" stop-color="white"/>
</linearGradient>
<linearGradient id="paint2_linear_4_3725" x1="1768.2" y1="534.178" x2="1787.11" y2="409.811" gradientUnits="userSpaceOnUse">
<stop stop-color="#ECF1FF"/>
<stop offset="1" stop-color="white"/>
</linearGradient>
<linearGradient id="paint3_linear_4_3725" x1="2701.79" y1="827.121" x2="2698.08" y2="1075.32" gradientUnits="userSpaceOnUse">
<stop stop-color="white"/>
<stop offset="1" stop-color="#D6E3FA"/>
</linearGradient>
<linearGradient id="paint4_linear_4_3725" x1="1832.26" y1="720.021" x2="1832.26" y2="912.807" gradientUnits="userSpaceOnUse">
<stop stop-color="#CFDDF3"/>
<stop offset="1" stop-color="#A1B8E3"/>
</linearGradient>
<linearGradient id="paint5_linear_4_3725" x1="31.3725" y1="-72.1677" x2="-18.6404" y2="-60.4814" gradientUnits="userSpaceOnUse">
<stop stop-color="#CFDDF3"/>
<stop offset="1" stop-color="#A1B8E3"/>
</linearGradient>
<linearGradient id="paint6_linear_4_3725" x1="31.3871" y1="-72.1341" x2="-18.6443" y2="-60.4325" gradientUnits="userSpaceOnUse">
<stop stop-color="#CFDDF3"/>
<stop offset="1" stop-color="#A1B8E3"/>
</linearGradient>
<linearGradient id="paint7_linear_4_3725" x1="31.3871" y1="-72.1341" x2="-18.6443" y2="-60.4325" gradientUnits="userSpaceOnUse">
<stop stop-color="#CFDDF3"/>
<stop offset="1" stop-color="#A1B8E3"/>
</linearGradient>
<linearGradient id="paint8_linear_4_3725" x1="31.3872" y1="-72.1341" x2="-18.6443" y2="-60.4324" gradientUnits="userSpaceOnUse">
<stop stop-color="#CFDDF3"/>
<stop offset="1" stop-color="#A1B8E3"/>
</linearGradient>
<linearGradient id="paint9_linear_4_3725" x1="31.3734" y1="-72.1656" x2="-18.6407" y2="-60.4784" gradientUnits="userSpaceOnUse">
<stop stop-color="#CFDDF3"/>
<stop offset="1" stop-color="#A1B8E3"/>
</linearGradient>
<linearGradient id="paint10_linear_4_3725" x1="31.376" y1="-72.1596" x2="-18.6413" y2="-60.4696" gradientUnits="userSpaceOnUse">
<stop stop-color="#CFDDF3"/>
<stop offset="1" stop-color="#A1B8E3"/>
</linearGradient>
<linearGradient id="paint11_linear_4_3725" x1="31.3781" y1="-72.1549" x2="-18.6419" y2="-60.4628" gradientUnits="userSpaceOnUse">
<stop stop-color="#CFDDF3"/>
<stop offset="1" stop-color="#A1B8E3"/>
</linearGradient>
<linearGradient id="paint12_linear_4_3725" x1="1118.08" y1="667.359" x2="1284.46" y2="747.629" gradientUnits="userSpaceOnUse">
<stop stop-color="#CFDDF3"/>
<stop offset="1" stop-color="#7FA1E0"/>
</linearGradient>
<linearGradient id="paint13_linear_4_3725" x1="1208.02" y1="741.756" x2="1208.02" y2="797.784" gradientUnits="userSpaceOnUse">
<stop stop-color="#CFDDF3"/>
<stop offset="1" stop-color="#A1B8E3"/>
</linearGradient>
<linearGradient id="paint14_linear_4_3725" x1="1188.01" y1="709.878" x2="1188.01" y2="743.417" gradientUnits="userSpaceOnUse">
<stop stop-color="#CFDDF3"/>
<stop offset="1" stop-color="#A1B8E3"/>
</linearGradient>
<linearGradient id="paint15_linear_4_3725" x1="1173.3" y1="651.773" x2="1173.3" y2="933.935" gradientUnits="userSpaceOnUse">
<stop stop-color="#CFDDF3"/>
<stop offset="1" stop-color="#A1B8E3"/>
</linearGradient>
<linearGradient id="paint16_linear_4_3725" x1="2454.61" y1="1089.75" x2="2454.01" y2="669.328" gradientUnits="userSpaceOnUse">
<stop stop-color="white"/>
<stop offset="1" stop-color="#D6E3FA"/>
</linearGradient>
<linearGradient id="paint17_linear_4_3725" x1="1303.21" y1="1050.68" x2="1279.93" y2="1145.04" gradientUnits="userSpaceOnUse">
<stop stop-color="white" stop-opacity="0.52474"/>
<stop offset="1" stop-color="white"/>
</linearGradient>
<linearGradient id="paint18_linear_4_3725" x1="1871.86" y1="777.336" x2="1827.16" y2="914.832" gradientUnits="userSpaceOnUse">
<stop stop-color="#CFDDF3"/>
<stop offset="1" stop-color="#A1B8E3"/>
</linearGradient>
<linearGradient id="paint19_linear_4_3725" x1="23.6339" y1="-54.1156" x2="-14.0243" y2="-45.2754" gradientUnits="userSpaceOnUse">
<stop stop-color="#CFDDF3"/>
<stop offset="1" stop-color="#A1B8E3"/>
</linearGradient>
<linearGradient id="paint20_linear_4_3725" x1="23.6388" y1="-54.1044" x2="-14.0256" y2="-45.2591" gradientUnits="userSpaceOnUse">
<stop stop-color="#CFDDF3"/>
<stop offset="1" stop-color="#A1B8E3"/>
</linearGradient>
<linearGradient id="paint21_linear_4_3725" x1="23.6393" y1="-54.1034" x2="-14.0257" y2="-45.2576" gradientUnits="userSpaceOnUse">
<stop stop-color="#CFDDF3"/>
<stop offset="1" stop-color="#A1B8E3"/>
</linearGradient>
<linearGradient id="paint22_linear_4_3725" x1="23.6393" y1="-54.1034" x2="-14.0257" y2="-45.2576" gradientUnits="userSpaceOnUse">
<stop stop-color="#CFDDF3"/>
<stop offset="1" stop-color="#A1B8E3"/>
</linearGradient>
<linearGradient id="paint23_linear_4_3725" x1="23.6268" y1="-54.132" x2="-14.0225" y2="-45.2992" gradientUnits="userSpaceOnUse">
<stop stop-color="#CFDDF3"/>
<stop offset="1" stop-color="#A1B8E3"/>
</linearGradient>
<linearGradient id="paint24_linear_4_3725" x1="23.6366" y1="-54.1094" x2="-14.025" y2="-45.2664" gradientUnits="userSpaceOnUse">
<stop stop-color="#CFDDF3"/>
<stop offset="1" stop-color="#A1B8E3"/>
</linearGradient>
<linearGradient id="paint25_linear_4_3725" x1="23.6379" y1="-54.1065" x2="-14.0254" y2="-45.2622" gradientUnits="userSpaceOnUse">
<stop stop-color="#CFDDF3"/>
<stop offset="1" stop-color="#A1B8E3"/>
</linearGradient>
<linearGradient id="paint26_linear_4_3725" x1="1231.73" y1="881.224" x2="1244.56" y2="920.97" gradientUnits="userSpaceOnUse">
<stop stop-color="#EDF3FD" stop-opacity="0.01"/>
<stop offset="1" stop-color="#D6E3FA"/>
</linearGradient>
<radialGradient id="paint27_radial_4_3725" cx="0" cy="0" r="1" gradientUnits="userSpaceOnUse" gradientTransform="translate(1309.4 670.735) rotate(150.825) scale(142.873 441.729)">
<stop stop-color="#64CF9B"/>
<stop offset="1" stop-color="#ADF9A9"/>
</radialGradient>
<linearGradient id="paint28_linear_4_3725" x1="1259.74" y1="675.045" x2="1259.74" y2="910.864" gradientUnits="userSpaceOnUse">
<stop stop-color="#80D4AE"/>
<stop offset="1" stop-color="#4CB67D"/>
</linearGradient>
<linearGradient id="paint29_linear_4_3725" x1="1258.41" y1="752.319" x2="1258.41" y2="776.967" gradientUnits="userSpaceOnUse">
<stop stop-color="#64DEA8"/>
<stop offset="1" stop-color="#4CB67D"/>
</linearGradient>
<linearGradient id="paint30_linear_4_3725" x1="1237.11" y1="816.936" x2="1237.11" y2="847.579" gradientUnits="userSpaceOnUse">
<stop stop-color="#64DEA8"/>
<stop offset="1" stop-color="#4CB67D"/>
</linearGradient>
<linearGradient id="paint31_linear_4_3725" x1="1264.4" y1="796.951" x2="1264.4" y2="815.604" gradientUnits="userSpaceOnUse">
<stop stop-color="#64DEA8"/>
<stop offset="1" stop-color="#4CB67D"/>
</linearGradient>
<linearGradient id="paint32_linear_4_3725" x1="1283.71" y1="680.374" x2="1283.71" y2="715.68" gradientUnits="userSpaceOnUse">
<stop stop-color="#64DEA8"/>
<stop offset="1" stop-color="#4CB67D"/>
</linearGradient>
<linearGradient id="paint33_linear_4_3725" x1="1381.54" y1="936.586" x2="1381.02" y2="1010.15" gradientUnits="userSpaceOnUse">
<stop stop-color="#D0DCF1"/>
<stop offset="1" stop-color="white"/>
</linearGradient>
<linearGradient id="paint34_linear_4_3725" x1="1869.53" y1="307.642" x2="1539.04" y2="387.73" gradientUnits="userSpaceOnUse">
<stop stop-color="#47689B"/>
<stop offset="1" stop-color="#223762"/>
</linearGradient>
<linearGradient id="paint35_linear_4_3725" x1="1633.2" y1="199.588" x2="1213.53" y2="392.492" gradientUnits="userSpaceOnUse">
<stop stop-color="#47689B"/>
<stop offset="1" stop-color="#223762"/>
</linearGradient>
<linearGradient id="paint36_linear_4_3725" x1="1541.75" y1="433.374" x2="1752.39" y2="433.374" gradientUnits="userSpaceOnUse">
<stop stop-color="#365383"/>
<stop offset="1" stop-color="#1C2C4C"/>
</linearGradient>
<linearGradient id="paint37_linear_4_3725" x1="1604.99" y1="956.036" x2="1645.81" y2="898.346" gradientUnits="userSpaceOnUse">
<stop stop-color="#365383"/>
<stop offset="1" stop-color="#1C2C4C"/>
</linearGradient>
<linearGradient id="paint38_linear_4_3725" x1="1791.45" y1="923.241" x2="1783.77" y2="807.583" gradientUnits="userSpaceOnUse">
<stop stop-color="#EDF3FD"/>
<stop offset="1" stop-color="#D6E3FA"/>
</linearGradient>
<linearGradient id="paint39_linear_4_3725" x1="1791.45" y1="831.312" x2="1783.77" y2="715.654" gradientUnits="userSpaceOnUse">
<stop stop-color="#EDF3FD"/>
<stop offset="1" stop-color="#D6E3FA"/>
</linearGradient>
<linearGradient id="paint40_linear_4_3725" x1="1791.45" y1="639.459" x2="1783.77" y2="523.801" gradientUnits="userSpaceOnUse">
<stop stop-color="#EDF3FD"/>
<stop offset="1" stop-color="#D6E3FA"/>
</linearGradient>
<linearGradient id="paint41_linear_4_3725" x1="1811.26" y1="678.413" x2="1795.37" y2="566.906" gradientUnits="userSpaceOnUse">
<stop stop-color="#FFE883"/>
<stop offset="1" stop-color="#FECC4C"/>
</linearGradient>
<linearGradient id="paint42_linear_4_3725" x1="1510.65" y1="1041.65" x2="1137.59" y2="1041.65" gradientUnits="userSpaceOnUse">
<stop stop-color="#D0DCF1"/>
<stop offset="1" stop-color="white" stop-opacity="0.01"/>
</linearGradient>
<linearGradient id="paint43_linear_4_3725" x1="1393.95" y1="1043.82" x2="1025.82" y2="1043.82" gradientUnits="userSpaceOnUse">
<stop stop-color="#D0DCF1"/>
<stop offset="1" stop-color="white" stop-opacity="0.01"/>
</linearGradient>
<linearGradient id="paint44_linear_4_3725" x1="1367.16" y1="823.737" x2="1382.9" y2="799.517" gradientUnits="userSpaceOnUse">
<stop stop-color="#70B8F9"/>
<stop offset="1" stop-color="#3D82F0"/>
</linearGradient>
<linearGradient id="paint45_linear_4_3725" x1="1371.79" y1="1067.19" x2="1391.08" y2="1037.7" gradientUnits="userSpaceOnUse">
<stop stop-color="#47689B"/>
<stop offset="1" stop-color="#223762"/>
</linearGradient>
<linearGradient id="paint46_linear_4_3725" x1="1490.76" y1="1079.58" x2="1506.31" y2="1047.95" gradientUnits="userSpaceOnUse">
<stop stop-color="#47689B"/>
<stop offset="1" stop-color="#223762"/>
</linearGradient>
<linearGradient id="paint47_linear_4_3725" x1="1439.93" y1="1093.3" x2="1532.37" y2="883.2" gradientUnits="userSpaceOnUse">
<stop stop-color="#CFDDF3"/>
<stop offset="1" stop-color="#A1B8E3"/>
</linearGradient>
<linearGradient id="paint48_linear_4_3725" x1="1483.52" y1="849.353" x2="1482.52" y2="831.636" gradientUnits="userSpaceOnUse">
<stop stop-color="#CFDDF3" stop-opacity="0.477723"/>
<stop offset="1" stop-color="#A1B8E3"/>
</linearGradient>
<linearGradient id="paint49_linear_4_3725" x1="1434.44" y1="614.252" x2="1400.81" y2="636.921" gradientUnits="userSpaceOnUse">
<stop stop-color="#70B8F9"/>
<stop offset="1" stop-color="#3D82F0"/>
</linearGradient>
<linearGradient id="paint50_linear_4_3725" x1="1374.55" y1="613.931" x2="1404.68" y2="653.631" gradientUnits="userSpaceOnUse">
<stop stop-color="#164898"/>
<stop offset="1" stop-color="#223762"/>
</linearGradient>
<linearGradient id="paint51_linear_4_3725" x1="1344.9" y1="769.881" x2="1375.12" y2="765.915" gradientUnits="userSpaceOnUse">
<stop stop-color="#EDF3FD"/>
<stop offset="1" stop-color="#D6E3FA"/>
</linearGradient>
<linearGradient id="paint52_linear_4_3725" x1="1457.58" y1="803.388" x2="1477.66" y2="790.59" gradientUnits="userSpaceOnUse">
<stop stop-color="#CFDDF3"/>
<stop offset="1" stop-color="#A1B8E3"/>
</linearGradient>
<linearGradient id="paint53_linear_4_3725" x1="1497.67" y1="713.104" x2="1497.39" y2="694.246" gradientUnits="userSpaceOnUse">
<stop stop-color="#CFDDF3"/>
<stop offset="1" stop-color="#A1B8E3"/>
</linearGradient>
<linearGradient id="paint54_linear_4_3725" x1="1605.18" y1="823.495" x2="1560.84" y2="645.735" gradientUnits="userSpaceOnUse">
<stop stop-color="#70B8F9"/>
<stop offset="1" stop-color="#3D82F0"/>
</linearGradient>
<linearGradient id="paint55_linear_4_3725" x1="1415.6" y1="721.892" x2="1435.58" y2="762.828" gradientUnits="userSpaceOnUse">
<stop stop-color="#D6E3FA"/>
<stop offset="1" stop-color="#E3EDFE"/>
</linearGradient>
<clipPath id="clip0_4_3725">
<rect width="1920" height="1253.33" fill="white"/>
</clipPath>
<clipPath id="clip1_4_3725">
<rect width="1920" height="1253.33" fill="white"/>
</clipPath>
</defs>
</svg>
